<svg width="47" height="49" viewBox="0 0 47 49" fill="none" xmlns="http://www.w3.org/2000/svg">
<path d="M1.63882 15.7198L1.99957 14.781C3.64998 10.4859 6.70008 6.87264 10.6572 4.52477L11.5222 4.01156C13.9685 2.56006 17.1284 3.36656 18.5799 5.81293C18.7272 6.06128 18.8534 6.32157 18.9572 6.59106C20.4009 10.3423 22.6263 13.7434 25.4855 16.5684L28.7751 19.8187C27.6299 24.392 24.4337 28.1784 20.1174 30.0749L16.3611 27.3775C13.0963 25.033 9.36993 23.4101 5.42962 22.6164C2.64105 22.0547 0.835814 19.3388 1.3975 16.5502C1.45452 16.2671 1.53525 15.9894 1.63882 15.7198ZM11.3993 38.8498L17.1104 36.842C18.3726 36.3983 19.0465 35.0249 18.625 33.7551C18.135 32.2785 18.1869 30.6757 18.7716 29.2339L18.8607 29.0141L17.1156 27.798C13.3506 25.1744 9.08638 23.353 4.58781 22.4468L2.44054 22.0143L1.70954 24.2491C0.491753 27.9722 0.85244 32.0316 2.70756 35.4816C4.37992 38.5918 8.06798 40.0209 11.3993 38.8498ZM7.33401 40.2789L9.05547 39.6737L12.4984 38.4634L14.159 37.8796C15.0836 37.5546 16.0989 38.0242 16.4499 38.9393L19.6284 47.2265C14.9793 47.1084 10.6496 44.8348 7.91307 41.0746L7.33401 40.2789ZM35.9622 9.75151L34.9415 15.7185C34.7159 17.0373 33.4751 17.9321 32.1526 17.7298C30.6147 17.4945 29.0433 17.8147 27.7202 18.6331L27.5184 18.7579L26.0266 17.2416C22.8083 13.9703 20.297 10.0723 18.6487 5.78966L17.8619 3.74544L19.9424 2.64972C23.4082 0.824329 27.4706 0.498567 31.183 1.74833C34.5297 2.87495 36.5576 6.27083 35.9622 9.75151ZM36.6888 5.50397L36.3811 7.30258L35.7658 10.8998L35.469 12.6348C35.3037 13.6009 35.9372 14.523 36.8981 14.7154L45.6013 16.4579C44.7046 11.8946 41.7365 8.00788 37.5703 5.94127L36.6888 5.50397Z" stroke="#F3DEE5" stroke-width="2" stroke-linejoin="round"/>
</svg>
